# 3ds Max Wavefront OBJ Exporter v0.97b - (c)2007 guruware
# File Created: 29.01.2019 03:53:45

#
# object man
#

v  1.0877 0.0011 0.0022
v  1.0877 3.8153 0.0022
v  1.0877 3.8153 0.5019
v  1.0877 0.0011 0.5019
v  1.1759 3.7259 0.0022
v  1.1759 3.7259 0.5019
v  1.3903 3.6563 0.0022
v  1.3903 3.6563 0.5019
v  1.6157 3.6677 0.0022
v  1.6157 3.6677 0.5019
v  1.7285 3.7568 0.0022
v  1.7285 3.7568 0.5019
v  1.7988 3.8750 0.0022
v  1.7988 3.8750 0.5019
v  1.8413 4.0343 0.0022
v  1.8413 4.0343 0.5019
v  1.8413 7.5123 0.0022
v  1.8413 7.5123 0.5019
v  1.7527 7.7223 0.0022
v  1.7527 7.7223 0.5019
v  1.5260 7.8807 0.0022
v  1.5260 7.8807 0.5019
v  1.2012 7.9911 0.0022
v  1.2012 7.9911 0.5019
v  0.7811 8.0462 0.0022
v  0.7811 8.0462 0.5019
v  0.4987 8.1591 0.0022
v  0.4987 8.1591 0.5019
v  0.5163 8.4017 0.0022
v  0.5163 8.4017 0.5019
v  0.6604 8.5295 0.0022
v  0.6604 8.5295 0.5019
v  0.7576 8.8577 0.0022
v  0.7576 8.8577 0.5019
v  0.7748 9.3973 0.0022
v  0.7748 9.3973 0.5019
v  0.5646 9.8492 0.0022
v  0.5646 9.8492 0.5019
v  0.1599 10.0202 0.0022
v  0.1599 10.0202 0.5019
v  -0.1289 10.0202 0.0022
v  -0.1289 10.0202 0.5019
v  -0.1289 3.8153 0.5019
v  -0.1289 0.0011 0.5019
v  0.7016 7.5008 0.5019
v  -0.1289 8.1591 0.5019
v  -0.1289 7.5008 0.5019
v  -0.1289 8.4017 0.5019
v  -1.3454 3.8153 0.5019
v  -1.3454 3.8153 0.0022
v  -1.3454 0.0011 0.0022
v  -1.3454 0.0011 0.5019
v  -1.4337 3.7259 0.5019
v  -1.4337 3.7259 0.0022
v  -1.6480 3.6563 0.5019
v  -1.6480 3.6563 0.0022
v  -1.8735 3.6677 0.5019
v  -1.8735 3.6677 0.0022
v  -1.9862 3.7568 0.5019
v  -1.9862 3.7568 0.0022
v  -2.0565 3.8750 0.5019
v  -2.0565 3.8750 0.0022
v  -2.0991 4.0343 0.5019
v  -2.0991 4.0343 0.0022
v  -2.0991 7.5123 0.5019
v  -2.0991 7.5123 0.0022
v  -2.0104 7.7223 0.5019
v  -2.0104 7.7223 0.0022
v  -1.7837 7.8807 0.5019
v  -1.7837 7.8807 0.0022
v  -1.4589 7.9911 0.5019
v  -1.4589 7.9911 0.0022
v  -1.0388 8.0462 0.5019
v  -1.0388 8.0462 0.0022
v  -0.7565 8.1591 0.5019
v  -0.7565 8.1591 0.0022
v  -0.7740 8.4017 0.5019
v  -0.7740 8.4017 0.0022
v  -0.9181 8.5295 0.5019
v  -0.9181 8.5295 0.0022
v  -1.0153 8.8577 0.5019
v  -1.0153 8.8577 0.0022
v  -1.0325 9.3973 0.5019
v  -1.0325 9.3973 0.0022
v  -0.8224 9.8492 0.5019
v  -0.8224 9.8492 0.0022
v  -0.4177 10.0202 0.5019
v  -0.4177 10.0202 0.0022
v  -0.9593 7.5008 0.5019
v  -0.1289 0.0011 0.0022
v  1.0877 0.0011 -0.5000
v  1.0877 3.8153 -0.5000
v  1.1759 3.7259 -0.5000
v  1.3903 3.6563 -0.5000
v  1.6157 3.6677 -0.5000
v  1.7285 3.7568 -0.5000
v  1.7988 3.8750 -0.5000
v  1.8413 4.0343 -0.5000
v  1.8413 7.5123 -0.5000
v  1.7527 7.7223 -0.5000
v  1.5260 7.8807 -0.5000
v  1.2012 7.9911 -0.5000
v  0.7811 8.0462 -0.5000
v  0.4987 8.1591 -0.5000
v  0.5163 8.4017 -0.5000
v  0.6604 8.5295 -0.5000
v  0.7576 8.8577 -0.5000
v  0.7748 9.3973 -0.5000
v  0.5646 9.8492 -0.5000
v  0.1599 10.0202 -0.5000
v  -0.1289 10.0202 -0.5000
v  -0.1289 0.0011 -0.5000
v  -0.1289 3.8153 -0.5000
v  0.7016 7.5008 -0.5000
v  -0.1289 7.5008 -0.5000
v  -0.1289 8.1591 -0.5000
v  -0.1289 8.4017 -0.5000
v  -1.3454 3.8153 -0.5000
v  -1.3454 0.0011 -0.5000
v  -1.4337 3.7259 -0.5000
v  -1.6480 3.6563 -0.5000
v  -1.8735 3.6677 -0.5000
v  -1.9862 3.7568 -0.5000
v  -2.0565 3.8750 -0.5000
v  -2.0991 4.0343 -0.5000
v  -2.0991 7.5123 -0.5000
v  -2.0104 7.7223 -0.5000
v  -1.7837 7.8807 -0.5000
v  -1.4589 7.9911 -0.5000
v  -1.0388 8.0462 -0.5000
v  -0.7565 8.1591 -0.5000
v  -0.7740 8.4017 -0.5000
v  -0.9181 8.5295 -0.5000
v  -1.0153 8.8577 -0.5000
v  -1.0325 9.3973 -0.5000
v  -0.8224 9.8492 -0.5000
v  -0.4177 10.0202 -0.5000
v  -0.9593 7.5008 -0.5000
# 138 vertices

vn 1.0000 0.0000 -0.0000
vn -0.7115 -0.7027 -0.0000
vn -0.5252 -0.8510 -0.0000
vn -0.1313 -0.9913 -0.0000
vn 0.3521 -0.9360 -0.0000
vn 0.7522 -0.6589 -0.0000
vn 0.9215 -0.3884 -0.0000
vn 0.9915 -0.1301 0.0000
vn 0.9915 -0.1301 -0.0000
vn 0.9801 0.1983 0.0000
vn 0.7775 0.6289 0.0000
vn 0.4517 0.8922 0.0000
vn 0.2270 0.9739 0.0000
vn 0.2526 0.9676 -0.0000
vn 0.2526 0.9676 0.0000
vn 0.8477 0.5304 -0.0000
vn 0.8477 0.5304 0.0000
vn 0.8966 -0.4428 -0.0000
vn 0.8438 -0.5367 0.0000
vn 0.8438 -0.5367 -0.0000
vn 0.9872 -0.1593 -0.0000
vn 0.9797 0.2003 -0.0000
vn 0.9797 0.2003 0.0000
vn 0.6944 0.7196 0.0000
vn 0.1985 0.9801 0.0000
vn 0.0000 1.0000 0.0000
vn 0.0000 -0.0000 1.0000
vn -1.0000 0.0000 -0.0000
vn 0.5252 -0.8510 -0.0000
vn 0.7115 -0.7027 -0.0000
vn 0.1313 -0.9913 -0.0000
vn -0.3521 -0.9360 -0.0000
vn -0.7522 -0.6589 -0.0000
vn -0.9215 -0.3884 -0.0000
vn -0.9915 -0.1301 -0.0000
vn -0.9801 0.1983 0.0000
vn -0.7775 0.6289 0.0000
vn -0.4517 0.8922 0.0000
vn -0.2270 0.9739 0.0000
vn -0.2526 0.9676 0.0000
vn -0.8477 0.5304 0.0000
vn -0.8966 -0.4428 -0.0000
vn -0.8966 -0.4428 0.0000
vn -0.8438 -0.5367 -0.0000
vn -0.9872 -0.1593 0.0000
vn -0.9872 -0.1593 -0.0000
vn -0.9797 0.2003 0.0000
vn -0.6944 0.7196 0.0000
vn -0.1985 0.9801 0.0000
vn -0.0000 -0.0000 1.0000
vn 0.0000 -1.0000 -0.0000
vn 0.6944 0.7196 -0.0000
vn 0.0000 0.0000 -1.0000
vn 0.1313 -0.9913 0.0000
vn -0.3521 -0.9360 0.0000
vn -0.9801 0.1983 -0.0000
vn -0.7775 0.6289 -0.0000
vn -0.8438 -0.5367 0.0000
# 58 vertex normals

g man
s 4
f 1//1 2//1 3//1 
f 3//1 4//1 1//1 
s 2
f 2//2 5//3 6//3 
f 6//3 3//2 2//2 
f 5//3 7//4 8//4 
f 8//4 6//3 5//3 
f 7//4 9//5 10//5 
f 10//5 8//4 7//4 
f 9//5 11//6 12//6 
f 12//6 10//5 9//5 
f 11//6 13//7 14//7 
f 14//7 12//6 11//6 
f 13//7 15//8 16//9 
f 16//9 14//7 13//7 
f 15//8 17//10 18//10 
f 18//10 16//9 15//8 
f 17//10 19//11 20//11 
f 20//11 18//10 17//10 
f 19//11 21//12 22//12 
f 22//12 20//11 19//11 
f 21//12 23//13 24//13 
f 24//13 22//12 21//12 
f 23//13 25//14 26//15 
f 26//15 24//13 23//13 
f 25//14 27//16 28//17 
f 28//17 26//15 25//14 
f 27//16 29//18 30//18 
f 30//18 28//17 27//16 
f 29//18 31//19 32//20 
f 32//20 30//18 29//18 
f 31//19 33//21 34//21 
f 34//21 32//20 31//19 
f 33//21 35//22 36//23 
f 36//23 34//21 33//21 
f 35//22 37//24 38//24 
f 38//24 36//23 35//22 
f 37//24 39//25 40//25 
f 40//25 38//24 37//24 
f 39//25 41//26 42//26 
f 42//26 40//25 39//25 
s 1
f 3//27 43//27 44//27 
f 44//27 4//27 3//27 
f 16//27 18//27 45//27 
f 45//27 3//27 16//27 
f 28//27 46//27 47//27 
f 47//27 45//27 28//27 
f 20//27 22//27 24//27 
f 26//27 28//27 45//27 
f 24//27 26//27 45//27 
f 20//27 24//27 45//27 
f 20//27 45//27 18//27 
f 8//27 10//27 12//27 
f 12//27 14//27 16//27 
f 8//27 12//27 16//27 
f 8//27 16//27 3//27 
f 6//27 8//27 3//27 
f 34//27 36//27 38//27 
f 38//27 40//27 42//27 
f 42//27 48//27 30//27 
f 38//27 42//27 30//27 
f 34//27 38//27 30//27 
f 32//27 34//27 30//27 
f 28//27 30//27 48//27 
f 48//27 46//27 28//27 
f 43//27 3//27 45//27 
f 45//27 47//27 43//27 
s 4
f 49//28 50//28 51//28 
f 51//28 52//28 49//28 
s 2
f 53//29 54//29 50//30 
f 50//30 49//30 53//29 
f 55//31 56//31 54//29 
f 54//29 53//29 55//31 
f 57//32 58//32 56//31 
f 56//31 55//31 57//32 
f 59//33 60//33 58//32 
f 58//32 57//32 59//33 
f 61//34 62//34 60//33 
f 60//33 59//33 61//34 
f 63//35 64//35 62//34 
f 62//34 61//34 63//35 
f 65//36 66//36 64//35 
f 64//35 63//35 65//36 
f 67//37 68//37 66//36 
f 66//36 65//36 67//37 
f 69//38 70//38 68//37 
f 68//37 67//37 69//38 
f 71//39 72//39 70//38 
f 70//38 69//38 71//39 
f 73//40 74//40 72//39 
f 72//39 71//39 73//40 
f 75//41 76//41 74//40 
f 74//40 73//40 75//41 
f 77//42 78//43 76//41 
f 76//41 75//41 77//42 
f 79//44 80//44 78//43 
f 78//43 77//42 79//44 
f 81//45 82//46 80//44 
f 80//44 79//44 81//45 
f 83//47 84//47 82//46 
f 82//46 81//45 83//47 
f 85//48 86//48 84//47 
f 84//47 83//47 85//48 
f 87//49 88//49 86//48 
f 86//48 85//48 87//49 
f 42//26 41//26 88//49 
f 88//49 87//49 42//26 
s 1
f 49//27 52//27 44//27 
f 44//27 43//27 49//27 
f 63//27 49//27 89//27 
f 89//27 65//27 63//27 
f 75//27 89//27 47//27 
f 47//27 46//27 75//27 
f 67//27 65//27 89//27 
f 89//27 75//27 73//27 
f 89//27 73//27 71//27 
f 67//27 89//27 71//27 
f 67//27 71//27 69//27 
f 63//27 61//27 59//27 
f 59//27 57//27 55//27 
f 63//27 59//27 55//27 
f 49//27 63//27 55//27 
f 53//27 49//27 55//27 
f 77//27 48//27 42//27 
f 42//27 87//27 85//27 
f 77//27 42//27 85//27 
f 85//27 83//50 81//50 
f 77//27 85//27 81//50 
f 79//27 77//27 81//50 
f 75//27 46//27 48//27 
f 48//27 77//27 75//27 
f 43//27 47//27 89//27 
f 89//27 49//27 43//27 
s 8
f 4//51 44//51 90//51 
f 90//51 1//51 4//51 
f 44//51 52//51 51//51 
f 51//51 90//51 44//51 
s 4
f 1//1 91//1 92//1 
f 92//1 2//1 1//1 
s 2
f 2//2 92//2 93//3 
f 93//3 5//3 2//2 
f 5//3 93//3 94//4 
f 94//4 7//4 5//3 
f 7//4 94//4 95//5 
f 95//5 9//5 7//4 
f 9//5 95//5 96//6 
f 96//6 11//6 9//5 
f 11//6 96//6 97//7 
f 97//7 13//7 11//6 
f 13//7 97//7 98//9 
f 98//9 15//8 13//7 
f 15//8 98//9 99//10 
f 99//10 17//10 15//8 
f 17//10 99//10 100//11 
f 100//11 19//11 17//10 
f 19//11 100//11 101//12 
f 101//12 21//12 19//11 
f 21//12 101//12 102//13 
f 102//13 23//13 21//12 
f 23//13 102//13 103//15 
f 103//15 25//14 23//13 
f 25//14 103//15 104//16 
f 104//16 27//16 25//14 
f 27//16 104//16 105//18 
f 105//18 29//18 27//16 
f 29//18 105//18 106//20 
f 106//20 31//19 29//18 
f 31//19 106//20 107//21 
f 107//21 33//21 31//19 
f 33//21 107//21 108//22 
f 108//22 35//22 33//21 
f 35//22 108//22 109//52 
f 109//52 37//24 35//22 
f 37//24 109//52 110//25 
f 110//25 39//25 37//24 
f 39//25 110//25 111//26 
f 111//26 41//26 39//25 
s 1
f 92//53 91//53 112//53 
f 112//53 113//53 92//53 
f 98//53 92//53 114//53 
f 114//53 99//53 98//53 
f 104//53 114//53 115//53 
f 115//53 116//53 104//53 
f 100//53 99//53 114//53 
f 114//53 104//53 103//53 
f 114//53 103//53 102//53 
f 100//53 114//53 102//53 
f 100//53 102//53 101//53 
f 98//53 97//53 96//53 
f 96//53 95//53 94//53 
f 98//53 96//53 94//53 
f 92//53 98//53 94//53 
f 93//53 92//53 94//53 
f 105//53 117//53 111//53 
f 111//53 110//53 109//53 
f 105//53 111//53 109//53 
f 109//53 108//53 107//53 
f 105//53 109//53 107//53 
f 106//53 105//53 107//53 
f 104//53 116//53 117//53 
f 117//53 105//53 104//53 
f 113//53 115//53 114//53 
f 114//53 92//53 113//53 
s 4
f 118//28 119//28 51//28 
f 51//28 50//28 118//28 
s 2
f 120//29 118//30 50//30 
f 50//30 54//29 120//29 
f 121//54 120//29 54//29 
f 54//29 56//31 121//54 
f 122//55 121//54 56//31 
f 56//31 58//32 122//55 
f 123//33 122//55 58//32 
f 58//32 60//33 123//33 
f 124//34 123//33 60//33 
f 60//33 62//34 124//34 
f 125//35 124//34 62//34 
f 62//34 64//35 125//35 
f 126//56 125//35 64//35 
f 64//35 66//36 126//56 
f 127//57 126//56 66//36 
f 66//36 68//37 127//57 
f 128//38 127//57 68//37 
f 68//37 70//38 128//38 
f 129//39 128//38 70//38 
f 70//38 72//39 129//39 
f 130//40 129//39 72//39 
f 72//39 74//40 130//40 
f 131//41 130//40 74//40 
f 74//40 76//41 131//41 
f 132//43 131//41 76//41 
f 76//41 78//43 132//43 
f 133//58 132//43 78//43 
f 78//43 80//44 133//58 
f 134//46 133//58 80//44 
f 80//44 82//46 134//46 
f 135//47 134//46 82//46 
f 82//46 84//47 135//47 
f 136//48 135//47 84//47 
f 84//47 86//48 136//48 
f 137//49 136//48 86//48 
f 86//48 88//49 137//49 
f 111//26 137//49 88//49 
f 88//49 41//26 111//26 
s 1
f 118//53 113//53 112//53 
f 112//53 119//53 118//53 
f 125//53 126//53 138//53 
f 138//53 118//53 125//53 
f 131//53 116//53 115//53 
f 115//53 138//53 131//53 
f 127//53 128//53 129//53 
f 130//53 131//53 138//53 
f 129//53 130//53 138//53 
f 127//53 129//53 138//53 
f 127//53 138//53 126//53 
f 121//53 122//53 123//53 
f 123//53 124//53 125//53 
f 121//53 123//53 125//53 
f 121//53 125//53 118//53 
f 120//53 121//53 118//53 
f 134//53 135//53 136//53 
f 136//53 137//53 111//53 
f 111//53 117//53 132//53 
f 136//53 111//53 132//53 
f 134//53 136//53 132//53 
f 133//53 134//53 132//53 
f 131//53 132//53 117//53 
f 117//53 116//53 131//53 
f 113//53 118//53 138//53 
f 138//53 115//53 113//53 
s 8
f 91//51 1//51 90//51 
f 90//51 112//51 91//51 
f 112//51 90//51 51//51 
f 51//51 119//51 112//51 
# 272 faces

