<?xml version="1.0" encoding="utf-8" ?>
<svg xmlns="http://www.w3.org/2000/svg" width="24.04" height="24" viewBox="0 0 24.04 24">
  <g>
    <polygon points="13.66 3 16.67 5.96 13.04 9.59 14.46 11 18.1 7.36 21.04 10.25 21.04 3 13.66 3" fill="#fff" fill-rule="evenodd"/>
    <polygon points="9.63 13 5.99 16.64 3.04 13.75 3.04 21 10.42 21 7.41 18.04 11.04 14.41 9.63 13" fill="#fff" fill-rule="evenodd"/>
    <polygon points="14.46 13 13.04 14.41 16.68 18.06 13.79 21 21.04 21 21.04 13.62 18.09 16.63 14.46 13" fill="#fff" fill-rule="evenodd"/>
    <polygon points="10.29 3 3.04 3 3.04 10.38 6 7.37 9.63 11 11.04 9.59 7.4 5.94 10.29 3" fill="#fff" fill-rule="evenodd"/>
  </g>
</svg>
